#!OML:ASF I:\Actors\actors\Patient Classification 1\Patient 1\Session 1\Subject1.ASF
:FULLY-SPECIFIED
:DEGREES
858
root 0.688266 17.5264 9.17431 9.99936 -8.12528 -9.8515
lowerback 1.14217 5.63323 8.41671
upperback -7.69878 8.12745 1.03201
thorax -7.79762 3.49279 -4.12565
lowerneck -11.5268 -1.15718 2.45687
upperneck 23.4039 -2.56409 1.74022
head 9.25297 -0.784287 -0.10608
rclavicle 1.26725e-014 1.66979e-014
rhumerus 37.2494 52.567 -59.1753
rradius 66.8377
rwrist 23.0699
rhand 18.2998 -23.2785
rfingers 7.12502
rthumb 42.9481 -47.5427
lclavicle 1.26725e-014 1.66979e-014
lhumerus -18.3142 -28.2957 83.0468
lradius 90.498
lwrist -21.735
lhand -19.4126 -24.8682
lfingers 7.12502
lthumb 6.90684 4.99914
rfemur -8.4847 20.8609 25.0065
rtibia 8.10943
rfoot -11.734 -16.9182
rtoes -2.56342
lfemur 4.69623 -38.2347 -11.612
ltibia -3.03111
lfoot -28.6151 52.3812
ltoes 18.0827
859
root 0.689547 17.5273 9.17161 10.0882 -8.41858 -9.86098
lowerback 1.17114 5.84861 8.73623
upperback -7.71333 8.42345 0.829732
thorax -7.72398 3.61396 -4.52174
lowerneck -11.2567 -1.13625 2.50042
upperneck 23.1115 -2.50865 1.68283
head 9.09893 -0.768302 -0.123838
rclavicle -5.1684e-015 2.90226e-014
rhumerus 38.666 52.8543 -58.6699
rradius 65.2304
rwrist 21.5366
rhand 19.8243 -24.6913
rfingers 7.12502
rthumb 44.3714 -48.4343
lclavicle -5.1684e-015 2.90226e-014
lhumerus -18.1814 -28.5808 82.7918
lradius 90.4664
lwrist -21.9121
lhand -19.0862 -24.6101
lfingers 7.12502
lthumb 7.22191 5.24667
rfemur -8.5336 20.9841 24.9487
rtibia 7.94594
rfoot -11.4756 -16.7327
rtoes -3.213
lfemur 4.73087 -38.2798 -11.6613
ltibia -3.06789
lfoot -28.9095 52.6335
ltoes 18.309
860
root 0.691381 17.5289 9.16943 10.1301 -8.61439 -9.88464
lowerback 1.24244 6.00008 9.1837
upperback -7.69564 8.63863 0.55482
thorax -7.61877 3.68714 -5.0606
lowerneck -11.0597 -1.04619 2.64451
upperneck 22.8147 -2.41939 1.7893
head 8.96038 -0.70983 -0.0997362
rclavicle 1.14649e-013 4.6118e-014
rhumerus 39.2776 52.7228 -58.9848
rradius 63.6414
rwrist 20.1305
rhand 20.8864 -24.5883
rfingers 7.12502
rthumb 45.36 -47.9446
lclavicle 1.14649e-013 4.6118e-014
lhumerus -18.015 -28.8918 82.3619
lradius 90.4004
lwrist -21.9062
lhand -19.4116 -24.717
lfingers 7.12502
lthumb 6.90781 5.15033
rfemur -8.52551 20.9961 24.9359
rtibia 7.79389
rfoot -11.2699 -16.552
rtoes -3.75743
lfemur 4.77563 -38.3393 -11.7072
ltibia -3.06268
lfoot -29.2043 52.7837
ltoes 18.6102
861
root 0.690616 17.5312 9.1688 10.1575 -8.67935 -9.94207
lowerback 1.40302 6.06449 10.28
upperback -7.69835 8.75495 -0.202979
thorax -7.44418 3.65702 -6.46229
lowerneck -10.9012 -0.857729 3.42927
upperneck 22.4441 -2.36758 2.09132
head 8.80392 -0.596527 -0.121597
rclavicle -6.60959e-015 -8.74653e-015
rhumerus 39.2756 52.083 -60.3493
rradius 62.2151
rwrist 18.6335
rhand 21.9997 -23.6406
rfingers 7.12502
rthumb 46.3932 -46.5695
lclavicle -6.60959e-015 -8.74653e-015
lhumerus -17.6961 -29.5488 81.0044
lradius 90.4708
lwrist -21.6947
lhand -19.7736 -24.9901
lfingers 7.12502
lthumb 6.5584 4.88832
rfemur -8.46664 21.0307 25.0017
rtibia 7.6648
rfoot -11.1882 -16.5399
rtoes -3.99615
lfemur 4.84525 -38.5002 -11.7059
ltibia -3.09622
lfoot -29.4974 52.9447
ltoes 18.901
862
root 0.689168 17.5328 9.16934 10.1887 -8.57156 -10.0378
lowerback 1.44555 6.05859 10.314
upperback -7.71902 8.75554 -0.216818
thorax -7.48556 3.65113 -6.50244
lowerneck -10.7819 -0.699231 3.70293
upperneck 22.2976 -2.17167 2.01694
head 8.73015 -0.493324 -0.170729
rclavicle -6.15736e-014 -2.3059e-014
rhumerus 39.4369 52.1033 -60.0852
rradius 61.5819
rwrist 17.1173
rhand 23.1127 -23.4914
rfingers 7.12502
rthumb 47.4229 -45.969
lclavicle -6.15736e-014 -2.3059e-014
lhumerus -17.8629 -29.5364 80.8745
lradius 90.635
lwrist -21.7719
lhand -19.7572 -25.1621
lfingers 7.12502
lthumb 6.57418 4.71589
rfemur -8.41433 21.0285 25.1293
rtibia 7.58329
rfoot -11.2233 -16.6584
rtoes -3.98462
lfemur 4.78964 -38.4753 -11.5199
ltibia -3.14251
lfoot -29.2749 52.917
ltoes 18.724
863
root 0.69284 17.5285 9.16917 10.0777 -8.17991 -10.4681
lowerback 1.62749 5.96473 9.36081
upperback -7.75913 8.67578 0.851925
thorax -7.93468 3.6824 -4.90018
lowerneck -10.4166 -0.619059 3.58924
upperneck 22.2077 -1.79337 1.0604
head 8.62003 -0.42731 -0.43222
rclavicle 1.59525e-014 -3.77691e-014
rhumerus 39.4854 52.8494 -58.0952
rradius 61.7483
rwrist 16.5099
rhand 24.392 -23.5151
rfingers 7.12502
rthumb 48.6023 -45.4419
lclavicle 1.59525e-014 -3.77691e-014
lhumerus -18.6546 -28.6906 82.5232
lradius 90.7864
lwrist -22.1406
lhand -19.6407 -25.2069
lfingers 7.12502
lthumb 6.68671 4.6675
rfemur -8.0969 20.8143 25.7507
rtibia 7.47343
rfoot -11.3128 -16.7764
rtoes -3.50805
lfemur 4.8274 -38.1454 -10.9529
ltibia -3.20135
lfoot -28.2221 52.5569
ltoes 17.737
864
root 0.705074 17.5133 9.16446 9.74942 -7.40716 -11.641
lowerback 2.1886 5.75777 10.5085
upperback -7.69942 8.57578 1.34823
thorax -8.15532 3.55785 -5.05278
lowerneck -10.0148 -0.556764 4.00532
upperneck 21.8432 -1.63291 0.512378
head 8.41469 -0.382176 -0.665597
rclavicle -5.62064e-014 -3.10104e-014
rhumerus 38.9952 52.9258 -57.1968
rradius 62.3086
rwrist 16.7533
rhand 25.3313 -24.1891
rfingers 7.12502
rthumb 49.4651 -45.6882
lclavicle -5.62064e-014 -3.10104e-014
lhumerus -18.859 -28.42 82.8614
lradius 90.9056
lwrist -22.1871
lhand -19.669 -25.3213
lfingers 7.12502
lthumb 6.65937 4.55398
rfemur -7.35411 20.1907 27.3965
rtibia 7.31915
rfoot -11.4281 -16.7631
rtoes -2.98604
lfemur 5.17183 -37.5492 -9.62881
ltibia -3.40024
lfoot -26.3868 51.8287
ltoes 16.0373
865
root 0.690919 17.5228 9.16985 9.86079 -6.94926 -10.7611
lowerback 1.70838 5.68851 9.38416
upperback -7.68358 8.33053 1.09198
thorax -7.98248 3.5188 -4.65373
lowerneck -10.462 -0.579543 3.16409
upperneck 22.1387 -1.76014 1.52989
head 8.61383 -0.399011 -0.199325
rclavicle 5.04913e-014 4.85035e-014
rhumerus 38.4233 52.7231 -56.3032
rradius 63.2114
rwrist 16.8602
rhand 25.9461 -25.0681
rfingers 7.12502
rthumb 50.0284 -46.2759
lclavicle 5.04913e-014 4.85035e-014
lhumerus -18.6747 -28.5023 82.6976
lradius 90.9948
lwrist -22.0635
lhand -19.6022 -25.3509
lfingers 7.12502
lthumb 6.72387 4.52231
rfemur -7.60143 20.4075 26.323
rtibia 7.2961
rfoot -11.6982 -17.5283
rtoes -2.16797
lfemur 4.53004 -37.8805 -10.1999
ltibia -3.2317
lfoot -26.0795 51.6771
ltoes 15.9145
866
root 0.696042 17.5158 9.1675 9.61313 -5.95554 -11.3903
lowerback 1.91345 5.46369 10.1413
upperback -7.58326 8.10555 1.24266
thorax -7.96169 3.36542 -4.90828
lowerneck -9.98852 -0.494816 4.39093
upperneck 21.6152 -1.62742 0.583976
head 8.33282 -0.345173 -0.704142
rclavicle -4.2043e-014 -5.96354e-015
rhumerus 37.7001 52.5704 -55.256
rradius 64.3617
rwrist 16.8182
rhand 27.2088 -24.5822
rfingers 7.12502
rthumb 51.181 -45.162
lclavicle -4.2043e-014 -5.96354e-015
lhumerus -18.4668 -28.6373 82.6537
lradius 91.0088
lwrist -22.0994
lhand -19.6192 -25.21
lfingers 7.12502
lthumb 6.70738 4.66372
rfemur -7.08583 19.967 27.2762
rtibia 7.14398
rfoot -11.8948 -17.9774
rtoes -1.8134
lfemur 4.53024 -37.8086 -9.33436
ltibia -3.29824
lfoot -24.7677 51.0371
ltoes 14.8501
